<?xml version="1.0" encoding="UTF-8"?>
<!DOCTYPE svg PUBLIC "-//W3C//DTD SVG 1.1//EN" "http://www.w3.org/Graphics/SVG/1.1/DTD/svg11.dtd">
<svg xmlns="http://www.w3.org/2000/svg" version="1.1" width="500px" height="500px" style="shape-rendering:geometricPrecision; text-rendering:geometricPrecision; image-rendering:optimizeQuality; fill-rule:evenodd; clip-rule:evenodd" xmlns:xlink="http://www.w3.org/1999/xlink">
<g><path style="opacity:1" fill="#f9f9f9" d="M -0.5,-0.5 C 166.167,-0.5 332.833,-0.5 499.5,-0.5C 499.5,166.167 499.5,332.833 499.5,499.5C 332.833,499.5 166.167,499.5 -0.5,499.5C -0.5,332.833 -0.5,166.167 -0.5,-0.5 Z"/></g>
<g><path style="opacity:1" fill="#060606" d="M 309.5,167.5 C 325.881,166.303 340.548,170.636 353.5,180.5C 357.318,177.182 360.985,173.682 364.5,170C 365.793,169.51 367.127,169.343 368.5,169.5C 368.833,185.181 368.499,200.848 367.5,216.5C 363.366,208.232 359.199,199.899 355,191.5C 338.838,171.045 319.005,166.545 295.5,178C 281.093,192.037 274.427,209.204 275.5,229.5C 266.808,229.831 258.141,229.498 249.5,228.5C 257.54,196.128 277.54,175.795 309.5,167.5 Z"/></g>
<g><path style="opacity:1" fill="#0b0b0b" d="M 104.5,170.5 C 130.169,170.333 155.835,170.5 181.5,171C 215.968,175.97 236.635,195.47 243.5,229.5C 235.5,229.5 227.5,229.5 219.5,229.5C 215.774,185.253 191.774,166.92 147.5,174.5C 147.5,192.833 147.5,211.167 147.5,229.5C 139.833,229.5 132.167,229.5 124.5,229.5C 124.5,211.167 124.5,192.833 124.5,174.5C 117.833,174.5 111.167,174.5 104.5,174.5C 104.5,173.167 104.5,171.833 104.5,170.5 Z"/></g>
<g><path style="opacity:1" fill="#505050" d="M 198.5,242.5 C 196.167,242.5 193.833,242.5 191.5,242.5C 191.5,246.5 191.5,250.5 191.5,254.5C 190.515,250.366 190.182,246.032 190.5,241.5C 193.385,241.194 196.052,241.527 198.5,242.5 Z"/></g>
<g><path style="opacity:1" fill="#121212" d="M 198.5,242.5 C 203.577,244.334 204.744,247.667 202,252.5C 198.715,254.137 195.215,254.804 191.5,254.5C 191.5,250.5 191.5,246.5 191.5,242.5C 193.833,242.5 196.167,242.5 198.5,242.5 Z"/></g>
<g><path style="opacity:1" fill="#191919" d="M 215.5,241.5 C 218.346,241.03 220.679,241.863 222.5,244C 222,244.5 221.5,245 221,245.5C 217.573,243.714 215.073,244.548 213.5,248C 213.78,249.395 214.447,250.562 215.5,251.5C 217.871,252.013 220.204,252.347 222.5,252.5C 214.347,256.192 210.847,253.526 212,244.5C 213.145,243.364 214.312,242.364 215.5,241.5 Z"/></g>
<g><path style="opacity:1" fill="#8f8f8f" d="M 239.5,254.5 C 238.082,252.692 236.082,252.025 233.5,252.5C 233.82,249.102 233.487,245.768 232.5,242.5C 231.509,246.445 231.176,250.445 231.5,254.5C 230.515,250.366 230.182,246.032 230.5,241.5C 231.833,241.5 233.167,241.5 234.5,241.5C 234.5,244.833 234.5,248.167 234.5,251.5C 236.5,251.5 238.5,251.5 240.5,251.5C 240.737,252.791 240.404,253.791 239.5,254.5 Z"/></g>
<g><path style="opacity:1" fill="#000000" d="M 239.5,254.5 C 236.833,254.5 234.167,254.5 231.5,254.5C 231.176,250.445 231.509,246.445 232.5,242.5C 233.487,245.768 233.82,249.102 233.5,252.5C 236.082,252.025 238.082,252.692 239.5,254.5 Z"/></g>
<g><path style="opacity:1" fill="#181818" d="M 251.5,241.5 C 258.169,241.005 261.336,244.005 261,250.5C 256.571,255.808 252.237,255.808 248,250.5C 247.333,248.833 247.333,247.167 248,245.5C 249.376,244.295 250.542,242.962 251.5,241.5 Z"/></g>
<g><path style="opacity:1" fill="#151515" d="M 277.5,250.5 C 277.902,247.523 278.902,244.857 280.5,242.5C 280.665,245.85 280.498,249.183 280,252.5C 277.503,254.478 274.669,254.978 271.5,254C 269.688,250.078 269.021,245.911 269.5,241.5C 270.5,241.5 271.5,241.5 272.5,241.5C 272.335,244.85 272.502,248.183 273,251.5C 274.915,252.916 276.415,252.582 277.5,250.5 Z"/></g>
<g><path style="opacity:1" fill="#646464" d="M 280.5,242.5 C 278.902,244.857 277.902,247.523 277.5,250.5C 277.5,247.5 277.5,244.5 277.5,241.5C 278.791,241.263 279.791,241.596 280.5,242.5 Z"/></g>
<g><path style="opacity:1" fill="#505050" d="M 297.5,242.5 C 295.167,242.5 292.833,242.5 290.5,242.5C 290.5,246.5 290.5,250.5 290.5,254.5C 289.515,250.366 289.182,246.032 289.5,241.5C 292.385,241.194 295.052,241.527 297.5,242.5 Z"/></g>
<g><path style="opacity:1" fill="#121212" d="M 297.5,242.5 C 302.577,244.334 303.744,247.667 301,252.5C 297.715,254.137 294.215,254.804 290.5,254.5C 290.5,250.5 290.5,246.5 290.5,242.5C 292.833,242.5 295.167,242.5 297.5,242.5 Z"/></g>
<g><path style="opacity:1" fill="#e4e4e4" d="M 193.5,244.5 C 200.004,244.138 201.671,246.638 198.5,252C 196.866,252.494 195.199,252.66 193.5,252.5C 193.5,249.833 193.5,247.167 193.5,244.5 Z"/></g>
<g><path style="opacity:1" fill="#e3e3e3" d="M 251.5,244.5 C 258.004,244.138 259.671,246.638 256.5,252C 250.785,252.401 249.119,249.901 251.5,244.5 Z"/></g>
<g><path style="opacity:1" fill="#e4e4e4" d="M 292.5,244.5 C 299.004,244.138 300.671,246.638 297.5,252C 295.866,252.494 294.199,252.66 292.5,252.5C 292.5,249.833 292.5,247.167 292.5,244.5 Z"/></g>
<g><path style="opacity:1" fill="#8f8f8f" d="M 219.5,269.5 C 227.343,268.18 235.343,268.18 243.5,269.5C 243.376,270.107 243.043,270.44 242.5,270.5C 235.018,269.508 227.352,269.175 219.5,269.5 Z"/></g>
<g><path style="opacity:1" fill="#8b8b8b" d="M 322.5,269.5 C 344.994,268.503 367.661,268.169 390.5,268.5C 390.737,269.791 390.404,270.791 389.5,271.5C 367.525,269.511 345.192,268.844 322.5,269.5 Z"/></g>
<g><path style="opacity:1" fill="#545454" d="M 147.5,322.5 C 146.503,305.008 146.17,287.341 146.5,269.5C 139.5,269.5 132.5,269.5 125.5,269.5C 125.83,287.341 125.497,305.008 124.5,322.5C 124.5,304.5 124.5,286.5 124.5,268.5C 132.167,268.5 139.833,268.5 147.5,268.5C 147.5,286.5 147.5,304.5 147.5,322.5 Z"/></g>
<g><path style="opacity:1" fill="#050505" d="M 147.5,322.5 C 159.171,322.667 170.838,322.5 182.5,322C 197.598,318.906 207.764,310.072 213,295.5C 216.299,286.989 218.466,278.322 219.5,269.5C 227.352,269.175 235.018,269.508 242.5,270.5C 234.676,302.746 214.343,321.246 181.5,326C 155.835,326.5 130.169,326.667 104.5,326.5C 104.5,325.167 104.5,323.833 104.5,322.5C 111.167,322.5 117.833,322.5 124.5,322.5C 125.497,305.008 125.83,287.341 125.5,269.5C 132.5,269.5 139.5,269.5 146.5,269.5C 146.17,287.341 146.503,305.008 147.5,322.5 Z"/></g>
<g><path style="opacity:1" fill="#070707" d="M 322.5,269.5 C 345.192,268.844 367.525,269.511 389.5,271.5C 383.167,271.5 376.833,271.5 370.5,271.5C 371.139,308.362 352.973,327.028 316,327.5C 291.497,325.358 272.83,313.691 260,292.5C 256.008,285.516 252.841,278.183 250.5,270.5C 258.807,269.502 267.14,269.169 275.5,269.5C 276.114,284.298 280.28,297.964 288,310.5C 300.405,323.75 315.239,327.25 332.5,321C 340.044,317.088 344.544,310.921 346,302.5C 346.5,292.172 346.666,281.839 346.5,271.5C 338.097,272.134 330.097,271.467 322.5,269.5 Z"/></g>
<g><path style="opacity:1" fill="#6d6d6d" d="M 199.5,345.5 C 204.041,345.331 204.374,345.998 200.5,347.5C 201.328,348.415 202.328,349.081 203.5,349.5C 204.583,350.365 204.749,351.365 204,352.5C 202.493,350.992 200.827,349.659 199,348.5C 198.53,347.423 198.697,346.423 199.5,345.5 Z"/></g>
<g><path style="opacity:1" fill="#505050" d="M 213.5,346.5 C 217.908,345.373 218.908,345.373 216.5,346.5C 216.663,348.857 216.497,351.19 216,353.5C 216.03,350.639 215.197,348.305 213.5,346.5 Z"/></g>
<g><path style="opacity:1" fill="#767676" d="M 229.5,345.5 C 236.004,345.138 237.671,347.638 234.5,353C 227.745,353.756 226.078,351.256 229.5,345.5 Z"/></g>
<g><path style="opacity:1" fill="#f5f5f5" d="M 230.5,346.5 C 234.35,346.701 235.35,348.534 233.5,352C 228.722,352.073 227.722,350.24 230.5,346.5 Z"/></g>
<g><path style="opacity:1" fill="#828282" d="M 245.5,345.5 C 254.481,346.382 254.814,349.049 246.5,353.5C 245.52,350.914 245.187,348.247 245.5,345.5 Z"/></g>
<g><path style="opacity:1" fill="#f9f9f9" d="M 247.5,346.5 C 248.5,346.5 249.5,346.5 250.5,346.5C 250.5,347.5 250.5,348.5 250.5,349.5C 249.5,349.5 248.5,349.5 247.5,349.5C 247.5,348.5 247.5,347.5 247.5,346.5 Z"/></g>
<g><path style="opacity:1" fill="#626262" d="M 266.5,349.5 C 265.778,349.082 265.278,348.416 265,347.5C 264.617,348.056 264.117,348.389 263.5,348.5C 265.041,344.642 266.041,344.975 266.5,349.5 Z"/></g>
<g><path style="opacity:1" fill="#ececec" d="M 266.5,349.5 C 265.053,350.885 264.053,350.552 263.5,348.5C 264.117,348.389 264.617,348.056 265,347.5C 265.278,348.416 265.778,349.082 266.5,349.5 Z"/></g>
<g><path style="opacity:1" fill="#363636" d="M 294.5,345.5 C 300.167,345.664 300.5,345.997 295.5,346.5C 295.5,348.5 295.5,350.5 295.5,352.5C 297.199,352.34 298.866,352.506 300.5,353C 298.527,353.495 296.527,353.662 294.5,353.5C 294.5,350.833 294.5,348.167 294.5,345.5 Z"/></g>
<g><path style="opacity:1" fill="#515151" d="M 263.5,348.5 C 264.053,350.552 265.053,350.885 266.5,349.5C 267.043,349.56 267.376,349.893 267.5,350.5C 265.083,351.574 262.749,352.407 260.5,353C 261.399,351.348 262.399,349.848 263.5,348.5 Z"/></g>
<g><path style="opacity:1" fill="#595959" d="M 278.5,351.5 C 280.086,352.148 281.753,352.648 283.5,353C 282.667,353.167 281.833,353.333 281,353.5C 279.624,353.316 278.791,352.649 278.5,351.5 Z"/></g>
</svg>
